<svg width="459.91748046875px" height="141.932421875px" xmlns="http://www.w3.org/2000/svg" viewBox="20.041259765625 4.033789062500006 459.91748046875 141.932421875" style="background:#f2eddb" preserveAspectRatio="xMidYMid"><defs><filter id="editing-vintage" x="-100%" y="-100%" width="300%" height="300%"><feConvolveMatrix in="SourceGraphic" result="extrude" order="9,9" divisor="1" kernelMatrix="1,0,0,0,0,0,0,0,0,0,1,0,0,0,0,0,0,0,0,0,1,0,0,0,0,0,0,0,0,0,1,0,0,0,0,0,0,0,0,0,1,0,0,0,0,0,0,0,0,0,1,0,0,0,0,0,0,0,0,0,1,0,0,0,0,0,0,0,0,0,1,0,0,0,0,0,0,0,0,0,1"> </feConvolveMatrix><feFlood flood-color="#900" result="flood-extrude"></feFlood><feComposite operator="in" in="flood-extrude" in2="extrude" result="extrude-color"></feComposite><feOffset dx="5" dy="5" in="extrude-color" result="extrude-offset"></feOffset><feColorMatrix in="SourceGraphic" result="stroke" type="matrix" values="0 0 0 0 0 0 0 0 0 0 0 0 0 0 0 0 1 0 0 0 "></feColorMatrix><feColorMatrix in="SourceGraphic" result="fill" type="matrix" values="0 0 0 0 0 0 0 0 0 0 0 0 0 0 0 1 0 0 1 0 "></feColorMatrix><feConvolveMatrix in="stroke" result="inner-shadow" order="5,5" divisor="1" kernelMatrix="1 0 0 0 0 0 1 0 0 0 0 0 1 0 0 0 0 0 1 0 0 0 0 0 1 "></feConvolveMatrix><feOffset dx="1" dy="1" in="inner-shadow" result="offset"></feOffset><feComposite operator="in" in="offset" in2="SourceAlpha" result="comp"></feComposite><feFlood flood-color="#000" result="flood3"></feFlood><feComposite operator="in" in="flood3" in2="comp" result="comp2"></feComposite><feColorMatrix in="comp2" result="comp3" type="matrix" values="1 0 0 0 0 0 1 0 0 0 0 0 1 0 0 0 0 0 0.5 0 "></feColorMatrix><feFlood flood-color="#f00" result="flood1"></feFlood><feComposite operator="in" in="flood1" in2="fill" result="fill2"></feComposite><feFlood flood-color="#fff" result="flood2"></feFlood><feComposite operator="in" in="flood2" in2="stroke" result="stroke2"></feComposite><feMerge result="obj"><feMergeNode in="extrude-offset"></feMergeNode><feMergeNode in="fill2"></feMergeNode><feMergeNode in="comp3"></feMergeNode></feMerge><feConvolveMatrix in="SourceAlpha" result="shadow" order="9,9" divisor="1" kernelMatrix="1,0,0,0,0,0,0,0,0,0,1,0,0,0,0,0,0,0,0,0,1,0,0,0,0,0,0,0,0,0,1,0,0,0,0,0,0,0,0,0,1,0,0,0,0,0,0,0,0,0,1,0,0,0,0,0,0,0,0,0,1,0,0,0,0,0,0,0,0,0,1,0,0,0,0,0,0,0,0,0,1"></feConvolveMatrix><feOffset dx="15" dy="15" in="shadow" result="shadow-offset"></feOffset><feFlood flood-color="#444" result="flood-shadow"></feFlood><feComposite operator="in" in="flood-shadow" in2="shadow-offset" result="shadow-color"></feComposite><feMerge><feMergeNode in="shadow-color"></feMergeNode><feMergeNode in="obj"></feMergeNode></feMerge></filter></defs><g transform="translate(-9,-9)"><g filter="url(#editing-vintage)"><g transform="translate(89.34999877214432, 99.98999977111816)"><path d="M17.14-9.32L17.14-38.62L17.14-38.62Q17.14-40.46 16.52-44.13L16.52-44.13L12.24-44.13L12.24-44.13Q10.47-44.13 6.73-43.79L6.73-43.79L6.73-43.79Q5.44-42.16 5.20-41.04L5.20-41.04L5.20-41.04Q4.96-39.92 4.62-37.26L4.62-37.26L0.68-37.60L1.16-47.40L2.45-48.62L2.45-48.62Q8.84-47.94 10.20-47.94L10.20-47.94L30.26-47.94L38.01-48.62L39.30-47.40L39.78-37.60L35.84-37.26L35.84-37.26Q35.50-39.92 35.26-41.04L35.26-41.04L35.26-41.04Q35.02-42.16 33.73-43.79L33.73-43.79L33.73-43.79Q29.99-44.13 28.22-44.13L28.22-44.13L23.80-44.13L23.80-44.13Q23.32-39.37 23.32-36.58L23.32-36.58L23.32-11.36L23.32-11.36Q23.32-7.48 23.80-4.15L23.80-4.15L29.92-3.67L29.44 0.34L29.44 0.34Q24.96 0 19.52 0L19.52 0L11.49 0.34L11.15-3.06L16.52-4.15L16.52-4.15Q17.14-8.16 17.14-9.32L17.14-9.32ZM65.82-47.94L65.82-47.94L78.27-48.62L78.27-48.62Q85.41-48.62 89.35-45.05L89.35-45.05L89.35-45.05Q93.30-41.48 93.30-34.54L93.30-34.54L93.30-34.54Q93.30-29.72 90.58-26.35L90.58-26.35L90.58-26.35Q87.86-22.98 83.37-21.49L83.37-21.49L83.37-21.49Q88.47-11.76 90.58-8.91L90.58-8.91L90.58-8.91Q91.19-7.89 93.91-4.15L93.91-4.15L98.80-3.67L98.33 0.34L98.33 0.34Q93.02 0 87.58 0L87.58 0L87.58 0Q84.73-6.26 83.84-7.89L83.84-7.89L77.18-20.47L76.70-20.47L76.70-20.47Q72.56-20.47 70.72-20.54L70.72-20.54L70.72-11.36L70.72-11.36Q70.72-7.48 71.20-4.15L71.20-4.15L77.32-3.67L76.84 0.34L76.84 0.34Q72.35 0 66.91 0L66.91 0L58.89 0.34L58.55-3.06L63.92-4.15L63.92-4.15Q64.53-8.16 64.53-9.32L64.53-9.32L64.53-38.62L64.53-38.62Q64.53-39.51 63.92-43.79L63.92-43.79L58.68-44.61L59.02-48.28L59.02-48.28Q63.58-48.08 65.82-47.94ZM75.41-45.22L75.41-45.22L75.41-45.22Q74.66-45.22 71.26-44.81L71.26-44.81L71.26-44.81Q70.72-41.41 70.72-36.58L70.72-36.58L70.72-24.14L70.72-24.14Q74.12-23.87 75.34-23.87L75.34-23.87L75.34-23.87Q80.72-23.87 83.81-26.55L83.81-26.55L83.81-26.55Q86.90-29.24 86.90-34.48L86.90-34.48L86.90-34.48Q86.90-39.71 83.84-42.47L83.84-42.47L83.84-42.47Q80.78-45.22 75.41-45.22ZM126.07-47.94L126.07-47.94L141.30-47.94L149.06-48.62L150.35-47.40L150.82-38.15L146.88-37.81L146.88-37.81Q146.68-39.44 146.37-40.80L146.37-40.80L146.37-40.80Q146.06-42.16 144.77-43.79L144.77-43.79L144.77-43.79Q141.03-44.13 139.26-44.13L139.26-44.13L130.36-44.13L130.36-44.13Q129.88-39.10 129.88-36.58L129.88-36.58L129.88-26.93L129.88-26.93Q132.19-26.79 132.80-26.79L132.80-26.79L137.77-26.79L141.85-27.40L142.46-31.89L145.59-31.55L145.59-31.55Q145.52-27.20 145.52-25.84L145.52-25.84L145.72-18.43L142.46-18.02L141.85-22.58L141.85-22.58Q137.77-22.98 136.41-22.98L136.41-22.98L132.80-22.98L132.80-22.98Q131.58-22.98 129.88-22.78L129.88-22.78L129.88-11.36L129.88-11.36Q129.88-8.43 130.36-3.88L130.36-3.88L140.15-3.88L140.15-3.88Q142.73-3.88 146.06-4.49L146.06-4.49L146.06-4.49Q147.36-6.26 147.46-6.77L147.46-6.77L147.46-6.77Q147.56-7.28 148.00-9.11L148.00-9.11L148.00-9.11Q148.44-10.95 148.51-11.56L148.51-11.56L152.25-11.22L151.23-0.95L149.94 0.27L149.94 0.27Q143.55 0 142.19 0L142.19 0L126.07 0L118.05 0.34L117.71-3.06L123.08-4.15L123.08-4.15Q123.69-8.16 123.69-9.32L123.69-9.32L123.69-38.62L123.69-38.62Q123.69-39.85 123.08-43.79L123.08-43.79L117.84-44.61L118.18-48.28L118.18-48.28Q124.71-47.94 126.07-47.94ZM185.10-36.58L185.10-36.58L185.10-11.36L185.10-11.36Q185.10-7.48 185.57-3.88L185.57-3.88L193.60-3.88L193.60-3.88Q196.18-3.88 199.51-4.49L199.51-4.49L199.51-4.49Q200.87-6.39 200.94-7.00L200.94-7.00L200.94-7.00Q201.76-10.20 201.96-11.56L201.96-11.56L205.70-11.22L204.68-0.95L203.39 0.27L203.39 0.27Q197.00 0 195.64 0L195.64 0L181.29 0L173.26 0.34L172.92-3.06L178.30-4.15L178.30-4.15Q178.91-8.16 178.91-9.32L178.91-9.32L178.91-38.62L178.91-38.62Q178.91-39.85 178.30-43.79L178.30-43.79L173.06-44.61L173.40-48.28L173.40-48.28Q179.93-47.94 181.29-47.94L181.29-47.94L190.60-48.28L190.88-44.27L185.57-43.79L185.57-43.79Q185.10-40.46 185.10-36.58ZM236.64-36.58L236.64-36.58L236.64-11.36L236.64-11.36Q236.64-7.48 237.12-3.88L237.12-3.88L245.14-3.88L245.14-3.88Q247.72-3.88 251.06-4.49L251.06-4.49L251.06-4.49Q252.42-6.39 252.48-7.00L252.48-7.00L252.48-7.00Q253.30-10.20 253.50-11.56L253.50-11.56L257.24-11.22L256.22-0.95L254.93 0.27L254.93 0.27Q248.54 0 247.18 0L247.18 0L232.83 0L224.81 0.34L224.47-3.06L229.84-4.15L229.84-4.15Q230.45-8.16 230.45-9.32L230.45-9.32L230.45-38.62L230.45-38.62Q230.45-39.85 229.84-43.79L229.84-43.79L224.60-44.61L224.94-48.28L224.94-48.28Q231.47-47.94 232.83-47.94L232.83-47.94L242.15-48.28L242.42-44.27L237.12-43.79L237.12-43.79Q236.64-40.46 236.64-36.58ZM314.87-42.16L314.87-42.16L314.87-42.16Q320.62-35.36 320.62-23.94L320.62-23.94L320.62-23.94Q320.62-12.51 314.87-5.75L314.87-5.75L314.87-5.75Q309.13 1.02 298.32 1.02L298.32 1.02L298.32 1.02Q287.50 1.02 281.76-5.75L281.76-5.75L281.76-5.75Q276.01-12.51 276.01-23.94L276.01-23.94L276.01-23.94Q276.01-35.36 281.76-42.16L281.76-42.16L281.76-42.16Q287.50-48.96 298.32-48.96L298.32-48.96L298.32-48.96Q309.13-48.96 314.87-42.16ZM287.16-39.34L287.16-39.34L287.16-39.34Q283.29-33.32 283.29-23.94L283.29-23.94L283.29-23.94Q283.29-14.55 287.16-8.57L287.16-8.57L287.16-8.57Q291.04-2.58 298.32-2.58L298.32-2.58L298.32-2.58Q305.59-2.58 309.47-8.57L309.47-8.57L309.47-8.57Q313.34-14.55 313.34-23.94L313.34-23.94L313.34-23.94Q313.34-33.32 309.47-39.34L309.47-39.34L309.47-39.34Q305.59-45.36 298.32-45.36L298.32-45.36L298.32-45.36Q291.04-45.36 287.16-39.34Z" fill="#f00" stroke="#0f0" stroke-width="1.8"></path></g></g><g><g transform="translate(89.34999877214432, 99.98999977111816)"><path d="M17.14-9.32L17.14-38.62L17.14-38.62Q17.14-40.46 16.52-44.13L16.52-44.13L12.24-44.13L12.24-44.13Q10.47-44.13 6.73-43.79L6.73-43.79L6.73-43.79Q5.44-42.16 5.20-41.04L5.20-41.04L5.20-41.04Q4.96-39.92 4.62-37.26L4.62-37.26L0.68-37.60L1.16-47.40L2.45-48.62L2.45-48.62Q8.84-47.94 10.20-47.94L10.20-47.94L30.26-47.94L38.01-48.62L39.30-47.40L39.78-37.60L35.84-37.26L35.84-37.26Q35.50-39.92 35.26-41.04L35.26-41.04L35.26-41.04Q35.02-42.16 33.73-43.79L33.73-43.79L33.73-43.79Q29.99-44.13 28.22-44.13L28.22-44.13L23.80-44.13L23.80-44.13Q23.32-39.37 23.32-36.58L23.32-36.58L23.32-11.36L23.32-11.36Q23.32-7.48 23.80-4.15L23.80-4.15L29.92-3.67L29.44 0.34L29.44 0.34Q24.96 0 19.52 0L19.52 0L11.49 0.34L11.15-3.06L16.52-4.15L16.52-4.15Q17.14-8.16 17.14-9.32L17.14-9.32ZM65.82-47.94L65.82-47.94L78.27-48.62L78.27-48.62Q85.41-48.62 89.35-45.05L89.35-45.05L89.35-45.05Q93.30-41.48 93.30-34.54L93.30-34.54L93.30-34.54Q93.30-29.72 90.58-26.35L90.58-26.35L90.58-26.35Q87.86-22.98 83.37-21.49L83.37-21.49L83.37-21.49Q88.47-11.76 90.58-8.91L90.58-8.91L90.58-8.91Q91.19-7.89 93.91-4.15L93.91-4.15L98.80-3.67L98.33 0.34L98.33 0.34Q93.02 0 87.58 0L87.58 0L87.58 0Q84.73-6.26 83.84-7.89L83.84-7.89L77.18-20.47L76.70-20.47L76.70-20.47Q72.56-20.47 70.72-20.54L70.72-20.54L70.72-11.36L70.72-11.36Q70.72-7.48 71.20-4.15L71.20-4.15L77.32-3.67L76.84 0.34L76.84 0.34Q72.35 0 66.91 0L66.91 0L58.89 0.34L58.55-3.06L63.92-4.15L63.92-4.15Q64.53-8.16 64.53-9.32L64.53-9.32L64.53-38.62L64.53-38.62Q64.53-39.51 63.92-43.79L63.92-43.79L58.68-44.61L59.02-48.28L59.02-48.28Q63.58-48.08 65.82-47.94ZM75.41-45.22L75.41-45.22L75.41-45.22Q74.66-45.22 71.26-44.81L71.26-44.81L71.26-44.81Q70.72-41.41 70.72-36.58L70.72-36.58L70.72-24.14L70.72-24.14Q74.12-23.87 75.34-23.87L75.34-23.87L75.34-23.87Q80.72-23.87 83.81-26.55L83.81-26.55L83.81-26.55Q86.90-29.24 86.90-34.48L86.90-34.48L86.90-34.48Q86.90-39.71 83.84-42.47L83.84-42.47L83.84-42.47Q80.78-45.22 75.41-45.22ZM126.07-47.94L126.07-47.94L141.30-47.94L149.06-48.62L150.35-47.40L150.82-38.15L146.88-37.81L146.88-37.81Q146.68-39.44 146.37-40.80L146.37-40.80L146.37-40.80Q146.06-42.16 144.77-43.79L144.77-43.79L144.77-43.79Q141.03-44.13 139.26-44.13L139.26-44.13L130.36-44.13L130.36-44.13Q129.88-39.10 129.88-36.58L129.88-36.58L129.88-26.93L129.88-26.93Q132.19-26.79 132.80-26.79L132.80-26.79L137.77-26.79L141.85-27.40L142.46-31.89L145.59-31.55L145.59-31.55Q145.52-27.20 145.52-25.84L145.52-25.84L145.72-18.43L142.46-18.02L141.85-22.58L141.85-22.58Q137.77-22.98 136.41-22.98L136.41-22.98L132.80-22.98L132.80-22.98Q131.58-22.98 129.88-22.78L129.88-22.78L129.88-11.36L129.88-11.36Q129.88-8.43 130.36-3.88L130.36-3.88L140.15-3.88L140.15-3.88Q142.73-3.88 146.06-4.49L146.06-4.49L146.06-4.49Q147.36-6.26 147.46-6.77L147.46-6.77L147.46-6.77Q147.56-7.28 148.00-9.11L148.00-9.11L148.00-9.11Q148.44-10.95 148.51-11.56L148.51-11.56L152.25-11.22L151.23-0.95L149.94 0.27L149.94 0.27Q143.55 0 142.19 0L142.19 0L126.07 0L118.05 0.34L117.71-3.06L123.08-4.15L123.08-4.15Q123.69-8.16 123.69-9.32L123.69-9.32L123.69-38.62L123.69-38.62Q123.69-39.85 123.08-43.79L123.08-43.79L117.84-44.61L118.18-48.28L118.18-48.28Q124.71-47.94 126.07-47.94ZM185.10-36.58L185.10-36.58L185.10-11.36L185.10-11.36Q185.10-7.48 185.57-3.88L185.57-3.88L193.60-3.88L193.60-3.88Q196.18-3.88 199.51-4.49L199.51-4.49L199.51-4.49Q200.87-6.39 200.94-7.00L200.94-7.00L200.94-7.00Q201.76-10.20 201.96-11.56L201.96-11.56L205.70-11.22L204.68-0.95L203.39 0.27L203.39 0.27Q197.00 0 195.64 0L195.64 0L181.29 0L173.26 0.34L172.92-3.06L178.30-4.15L178.30-4.15Q178.91-8.16 178.91-9.32L178.91-9.32L178.91-38.62L178.91-38.62Q178.91-39.85 178.30-43.79L178.30-43.79L173.06-44.61L173.40-48.28L173.40-48.28Q179.93-47.94 181.29-47.94L181.29-47.94L190.60-48.28L190.88-44.27L185.57-43.79L185.57-43.79Q185.10-40.46 185.10-36.58ZM236.64-36.58L236.64-36.58L236.64-11.36L236.64-11.36Q236.64-7.48 237.12-3.88L237.12-3.88L245.14-3.88L245.14-3.88Q247.72-3.88 251.06-4.49L251.06-4.49L251.06-4.49Q252.42-6.39 252.48-7.00L252.48-7.00L252.48-7.00Q253.30-10.20 253.50-11.56L253.50-11.56L257.24-11.22L256.22-0.95L254.93 0.27L254.93 0.27Q248.54 0 247.18 0L247.18 0L232.83 0L224.81 0.34L224.47-3.06L229.84-4.15L229.84-4.15Q230.45-8.16 230.45-9.32L230.45-9.32L230.45-38.62L230.45-38.62Q230.45-39.85 229.84-43.79L229.84-43.79L224.60-44.61L224.94-48.28L224.94-48.28Q231.47-47.94 232.83-47.94L232.83-47.94L242.15-48.28L242.42-44.27L237.12-43.79L237.12-43.79Q236.64-40.46 236.64-36.58ZM314.87-42.16L314.87-42.16L314.87-42.16Q320.62-35.36 320.62-23.94L320.62-23.94L320.62-23.94Q320.62-12.51 314.87-5.75L314.87-5.75L314.87-5.75Q309.13 1.02 298.32 1.02L298.32 1.02L298.32 1.02Q287.50 1.02 281.76-5.75L281.76-5.75L281.76-5.75Q276.01-12.51 276.01-23.94L276.01-23.94L276.01-23.94Q276.01-35.36 281.76-42.16L281.76-42.16L281.76-42.16Q287.50-48.96 298.32-48.96L298.32-48.96L298.32-48.96Q309.13-48.96 314.87-42.16ZM287.16-39.34L287.16-39.34L287.16-39.34Q283.29-33.32 283.29-23.94L283.29-23.94L283.29-23.94Q283.29-14.55 287.16-8.57L287.16-8.57L287.16-8.57Q291.04-2.58 298.32-2.58L298.32-2.58L298.32-2.58Q305.59-2.58 309.47-8.57L309.47-8.57L309.47-8.57Q313.34-14.55 313.34-23.94L313.34-23.94L313.34-23.94Q313.34-33.32 309.47-39.34L309.47-39.34L309.47-39.34Q305.59-45.36 298.32-45.36L298.32-45.36L298.32-45.36Q291.04-45.36 287.16-39.34Z" fill="none" stroke="#fff" stroke-width="2.1"></path></g></g></g><style>text {
  font-size: 64px;
  font-family: Arial Black;
  dominant-baseline: central;
  text-anchor: middle;
}</style></svg>